<svg xmlns="http://www.w3.org/2000/svg" viewBox="0 0 1280 720" role="img" aria-label="世界杯32强战 7月1日赛程"><defs><linearGradient id="bg" x1="0" y1="0" x2="1" y2="1"><stop offset="0" stop-color="#1d4ed8"/><stop offset="0.58" stop-color="#0284c7"/><stop offset="1" stop-color="#10b981"/></linearGradient><style>.brand{font:800 18px -apple-system,BlinkMacSystemFont,'Segoe UI','PingFang SC',sans-serif;fill:#1d4ed8}.badge{font:800 18px -apple-system,BlinkMacSystemFont,'Segoe UI','PingFang SC',sans-serif;fill:#dbeafe}.title{font:950 76px -apple-system,BlinkMacSystemFont,'Segoe UI','PingFang SC',sans-serif;fill:#fff}.sub{font:800 28px -apple-system,BlinkMacSystemFont,'Segoe UI','PingFang SC',sans-serif;fill:#dbeafe}.team{font:850 18px -apple-system,BlinkMacSystemFont,'Segoe UI','PingFang SC',sans-serif;fill:#fff}</style></defs><rect width="1280" height="720" fill="url(#bg)"/><circle cx="980" cy="120" r="240" fill="#fff" opacity=".12"/><path d="M780 0h500v720H880c-100-86-144-190-132-304 14-132 100-264 32-416Z" fill="#fff" opacity=".10"/><rect x="32" y="32" width="150" height="36" rx="18" fill="#dbeafe"/><text x="59" y="56" class="brand">Feeds Hub</text><rect x="964" y="32" width="284" height="36" rx="18" fill="#0f172a" opacity=".55"/><text x="1106" y="56" text-anchor="middle" class="badge">世界杯 · 32强</text><text x="64" y="280" class="title">7月1日</text><text x="64" y="360" class="title">淘汰赛提速</text><text x="64" y="430" class="sub">四场32强战 · 主队与欧洲强队同日亮相</text><g transform="translate(775 170)"><rect width="360" height="320" rx="36" fill="#ffffff" opacity=".18"/><text x="42" y="72" class="team">USA  vs  波黑</text><text x="42" y="132" class="team">MEX  vs  厄瓜多尔</text><text x="42" y="192" class="team">ENG  vs  民主刚果</text><text x="42" y="252" class="team">BEL  vs  塞内加尔</text><path d="M285 70h40v180h-40" fill="none" stroke="#fff" stroke-width="10" opacity=".55" stroke-linecap="round"/></g></svg>
