<svg xmlns="http://www.w3.org/2000/svg" width="1200" height="675" viewBox="0 0 1200 675" role="img" aria-label="Anthropic 安全承诺"><defs><linearGradient id="bg" x1="0" y1="0" x2="1" y2="1"><stop offset="0%" stop-color="#0f172a"/><stop offset="55%" stop-color="#2563eb"/><stop offset="100%" stop-color="#7c3aed"/></linearGradient><style>.k{font:900 34px -apple-system,BlinkMacSystemFont,'Segoe UI','PingFang SC',sans-serif;fill:#bfdbfe}.t{font:950 76px -apple-system,BlinkMacSystemFont,'Segoe UI','PingFang SC',sans-serif;fill:#fff}.s{font:800 32px -apple-system,BlinkMacSystemFont,'Segoe UI','PingFang SC',sans-serif;fill:#dbeafe}.m{font:800 24px -apple-system,BlinkMacSystemFont,'Segoe UI','PingFang SC',sans-serif;fill:#1d4ed8}</style></defs><rect width="1200" height="675" fill="url(#bg)"/><circle cx="980" cy="130" r="220" fill="#fff" opacity=".1"/><circle cx="930" cy="520" r="260" fill="#c084fc" opacity=".16"/><rect x="72" y="72" width="200" height="54" rx="27" fill="#dbeafe"/><text x="103" y="108" class="m">Feeds Hub</text><text x="72" y="196" class="k">AI · 安全承诺</text><text x="72" y="300" class="t">解禁之后</text><text x="72" y="380" class="t">安全线</text><text x="72" y="462" class="s">模型访问 · 政府沟通</text><g transform="translate(830 185)"><path d="M150 0l150 58v132c0 92-62 160-150 205C62 350 0 282 0 190V58Z" fill="#fff" opacity=".2"/><path d="M94 190l40 42 82-100" fill="none" stroke="#fff" stroke-width="24" stroke-linecap="round" stroke-linejoin="round"/><circle cx="150" cy="190" r="126" fill="none" stroke="#fff" stroke-width="14" opacity=".35"/><path d="M-42 365h384" stroke="#fff" stroke-width="14" stroke-linecap="round" opacity=".55"/><circle cx="-42" cy="365" r="18" fill="#fff" opacity=".8"/><circle cx="342" cy="365" r="18" fill="#fff" opacity=".8"/></g></svg>
