<svg xmlns="http://www.w3.org/2000/svg" viewBox="0 0 1280 720" role="img" aria-labelledby="title desc">
  <title id="title">AI产品设计的审美判断</title>
  <desc id="desc">AI taste 与产品设计判断力成为创业热点的海报</desc>
  <defs>
    <linearGradient id="bg" x1="0" y1="0" x2="1" y2="1"><stop offset="0" stop-color="#f8fafc"/><stop offset="0.48" stop-color="#fce7f3"/><stop offset="1" stop-color="#ddd6fe"/></linearGradient>
    <filter id="shadow" x="-20%" y="-20%" width="140%" height="140%"><feDropShadow dx="0" dy="22" stdDeviation="28" flood-color="#581c87" flood-opacity="0.16"/></filter>
  </defs>
  <rect width="1280" height="720" fill="url(#bg)"/>
  <circle cx="1040" cy="100" r="260" fill="#a855f7" opacity="0.10"/>
  <circle cx="930" cy="660" r="340" fill="#ec4899" opacity="0.10"/>
  <rect x="24" y="24" rx="20" width="136" height="44" fill="#1d4ed8" opacity="0.96"/>
  <text x="46" y="53" font-family="Inter, PingFang SC, Microsoft YaHei, sans-serif" font-size="24" font-weight="900" fill="#ffffff">Feeds Hub</text>
  <g transform="translate(58 122)">
    <text x="0" y="38" font-family="Inter, PingFang SC, Microsoft YaHei, sans-serif" font-size="26" font-weight="900" fill="#7e22ce">创业 · 产品设计</text>
    <text x="0" y="116" font-family="Inter, PingFang SC, Microsoft YaHei, sans-serif" font-size="70" font-weight="950" fill="#111827">AI开始学习</text>
    <text x="0" y="194" font-family="Inter, PingFang SC, Microsoft YaHei, sans-serif" font-size="64" font-weight="950" fill="#111827">“品味判断”</text>
    <text x="0" y="260" font-family="Inter, PingFang SC, Microsoft YaHei, sans-serif" font-size="30" font-weight="850" fill="#475569">设计反馈 · 审美标注 · 产品差异化</text>
  </g>
  <g transform="translate(680 112)" filter="url(#shadow)">
    <rect x="0" y="0" width="520" height="470" rx="42" fill="#ffffff"/>
    <g transform="translate(58 58)">
      <rect x="0" y="0" width="404" height="270" rx="34" fill="#f8fafc" stroke="#e2e8f0" stroke-width="4"/>
      <g transform="translate(36 34)">
        <rect x="0" y="0" width="150" height="82" rx="22" fill="#dbeafe"/>
        <rect x="178" y="0" width="150" height="82" rx="22" fill="#fce7f3"/>
        <rect x="0" y="112" width="150" height="82" rx="22" fill="#dcfce7"/>
        <rect x="178" y="112" width="150" height="82" rx="22" fill="#fef3c7"/>
        <path d="M52 148c22-38 74-38 96 0c-22 38-74 38-96 0Z" fill="#16a34a" opacity="0.28"/>
        <circle cx="100" cy="148" r="18" fill="#16a34a"/>
      </g>
      <g transform="translate(54 320)" font-family="Inter, PingFang SC, Microsoft YaHei, sans-serif" font-weight="900">
        <rect x="0" y="0" width="112" height="48" rx="24" fill="#ede9fe"/><text x="28" y="31" font-size="20" fill="#6d28d9">Taste</text>
        <rect x="136" y="0" width="124" height="48" rx="24" fill="#fce7f3"/><text x="166" y="31" font-size="20" fill="#be185d">Design</text>
        <rect x="284" y="0" width="98" height="48" rx="24" fill="#eff6ff"/><text x="308" y="31" font-size="20" fill="#1d4ed8">Loop</text>
      </g>
    </g>
  </g>
</svg>
